<svg id="Шар_1" data-name="Шар 1" xmlns="http://www.w3.org/2000/svg" viewBox="0 0 914 289"><defs><style>.cls-1{fill:#fff;}.cls-2{fill:#340742;}</style></defs><title>The Best Movies</title><path class="cls-1" d="M317.66,47.5h76.59v15H317.66Zm29.89,7.6h16.91v67.4H347.55Z"/><path class="cls-1" d="M403.75,47.5h17v75h-17Zm9.3,29.6h58.2V92h-58.2Zm50.7-29.6h17v75h-17Z"/><path class="cls-1" d="M515.85,85l-5,31.8-7.4-8.4h57.8v14.1h-67.5l5.8-37.5-5.8-37.5h67V61.6h-57.3l7.4-8.4Zm42.3-6.5v13h-53.7v-13Z"/><path class="cls-1" d="M647.85,85.5l1.6-3.4a37.46,37.46,0,0,1,14.4,2.75,18.29,18.29,0,0,1,8.4,6.9,18.48,18.48,0,0,1,2.7,10,20.22,20.22,0,0,1-2.85,10.7,19.52,19.52,0,0,1-8.35,7.4q-5.49,2.7-13.8,2.7h-52.6l5.8-38.5-5.8-36.5h50.7q10.41,0,16.15,4.85T670,65.7a19.58,19.58,0,0,1-2.15,8.9,17.89,17.89,0,0,1-7,7.25Q656,84.81,647.85,85.5Zm-33.7,32.7-6.5-8.2h38.8c3.6,0,6.39-.85,8.35-2.55a8.93,8.93,0,0,0,3-7.15,9.07,9.07,0,0,0-3.4-7.45q-3.39-2.75-10-2.75h-31.6V77.9h29.6a11,11,0,0,0,7.45-2.55,8.93,8.93,0,0,0,3-7.15,7.7,7.7,0,0,0-2.5-5.85Q647.76,60,643.05,60h-35.4l6.5-8.2,5.3,32.2Z"/><path class="cls-1" d="M706,85l-5,31.8-7.4-8.4h57.8v14.1h-67.5l5.8-37.5-5.8-37.5h67V61.6h-57.3l7.4-8.4Zm42.3-6.5v13h-53.7v-13Z"/><path class="cls-1" d="M760.25,98h17.2a12.13,12.13,0,0,0,3.35,6.65,18,18,0,0,0,7.4,4.4A34.12,34.12,0,0,0,799,110.6q8.91,0,14-2.55t5.15-7.15a6.26,6.26,0,0,0-2.95-5.55q-2.94-1.95-11-2.85l-15.1-1.7Q774.56,89.2,768,84T761.45,69.3a19,19,0,0,1,4.35-12.6,27.14,27.14,0,0,1,12.25-8A56.76,56.76,0,0,1,796.65,46a52.31,52.31,0,0,1,18.5,3,31.65,31.65,0,0,1,12.9,8.5,20.41,20.41,0,0,1,5.2,12.75h-17.2a10,10,0,0,0-2.95-5.75,16.23,16.23,0,0,0-6.75-3.8,33.79,33.79,0,0,0-10.1-1.35q-8.1,0-12.9,2.4t-4.8,6.8a5.9,5.9,0,0,0,2.85,5.25q2.85,1.84,10.05,2.75l15.7,1.9q10.41,1.09,16.55,3.55t8.8,6.55A18.78,18.78,0,0,1,835.15,99a20.32,20.32,0,0,1-4.55,13.15,29.1,29.1,0,0,1-12.75,8.75,54.06,54.06,0,0,1-19.2,3.1,54.94,54.94,0,0,1-19.7-3.25,32,32,0,0,1-13.4-9.1A22.55,22.55,0,0,1,760.25,98Z"/><path class="cls-1" d="M837.75,47.5h76.6v15h-76.6Zm29.9,7.6h16.9v67.4h-16.9Z"/><path class="cls-1" d="M479.66,167.5v75h-16.2V173.2l4.29.3-32,69h-17.5l-32-68.8,4.21-.4v69.2h-16.1v-75h26.1l30.2,66.8h-7.3l30.2-66.8Z"/><path class="cls-1" d="M535.05,244q-13.09,0-22.95-4.9a37.92,37.92,0,0,1,0-68.2Q522,166,535.05,166t23,4.9a37.92,37.92,0,0,1,0,68.2Q548.16,244,535.05,244Zm0-15.1a32,32,0,0,0,14.16-2.9,21.44,21.44,0,0,0,9.2-8.3,26.44,26.44,0,0,0,0-25.4,21.5,21.5,0,0,0-9.2-8.3A35.85,35.85,0,0,0,521,184a21.35,21.35,0,0,0-9.25,8.3,26.44,26.44,0,0,0,0,25.4A21.29,21.29,0,0,0,521,226,32,32,0,0,0,535.05,228.9Z"/><path class="cls-1" d="M628.05,235h-7.5l30.6-67.5h18l-35.6,75h-19.1l-35.5-75h18.2Z"/><path class="cls-1" d="M677.25,167.5h17v75h-17Z"/><path class="cls-1" d="M729.25,205l-5,31.8-7.4-8.4h57.8v14.1h-67.5L713,205l-5.8-37.5h67v14.1h-57.3l7.4-8.4Zm42.3-6.5v13h-53.7v-13Z"/><path class="cls-1" d="M783.55,218h17.2a12.13,12.13,0,0,0,3.35,6.65,18,18,0,0,0,7.4,4.4,34.12,34.12,0,0,0,10.75,1.55q8.91,0,14-2.55t5.15-7.15a6.26,6.26,0,0,0-3-5.55q-2.94-1.95-11-2.85l-15.1-1.7q-14.6-1.61-21.15-6.85t-6.55-14.65a19,19,0,0,1,4.35-12.6,27.08,27.08,0,0,1,12.25-7.95A56.76,56.76,0,0,1,820,166a52.31,52.31,0,0,1,18.5,3.05,31.65,31.65,0,0,1,12.9,8.5,20.45,20.45,0,0,1,5.2,12.75h-17.2a10.06,10.06,0,0,0-3-5.75,16.23,16.23,0,0,0-6.75-3.8,33.79,33.79,0,0,0-10.1-1.35q-8.1,0-12.9,2.4t-4.8,6.8a5.9,5.9,0,0,0,2.85,5.25q2.85,1.85,10,2.75l15.7,1.9q10.41,1.09,16.55,3.55t8.8,6.55a18.78,18.78,0,0,1,2.65,10.4,20.32,20.32,0,0,1-4.55,13.15,29.1,29.1,0,0,1-12.75,8.75A54.06,54.06,0,0,1,822,244a54.94,54.94,0,0,1-19.7-3.25,31.92,31.92,0,0,1-13.4-9.1A22.49,22.49,0,0,1,783.55,218Z"/><path class="cls-2" d="M272.84,79.63a144.28,144.28,0,0,0-257.18,0Z"/><path class="cls-2" d="M18.36,215.4a144.25,144.25,0,0,0,251.78,0Z"/><path class="cls-1" d="M29.89,173.88a34.67,34.67,0,0,1-14.88-3,23.86,23.86,0,0,1-10-8.4,23.71,23.71,0,0,1,0-25.12A23.86,23.86,0,0,1,15,129a34.67,34.67,0,0,1,14.88-3,34.73,34.73,0,0,1,14.88,3,23.68,23.68,0,0,1,10,8.4,23.94,23.94,0,0,1,0,25.12,23.68,23.68,0,0,1-10,8.4A34.73,34.73,0,0,1,29.89,173.88Zm0-10.16a17.48,17.48,0,0,0,8-1.68A12.16,12.16,0,0,0,43,157.28a14.24,14.24,0,0,0,1.8-7.32,14.41,14.41,0,0,0-1.8-7.4,12.16,12.16,0,0,0-5.12-4.76,17.48,17.48,0,0,0-8-1.68A17.51,17.51,0,0,0,22,137.8a12.09,12.09,0,0,0-5.16,4.76A14.41,14.41,0,0,0,15,150a14.24,14.24,0,0,0,1.8,7.32A12.09,12.09,0,0,0,22,162,17.51,17.51,0,0,0,29.89,163.72Z"/><path class="cls-1" d="M63.73,127.16H77.09L80,144.52v28.16H66.61V142.52Zm33.6-1.2a22,22,0,0,1,11,2.6,17.12,17.12,0,0,1,7,7.4,25.31,25.31,0,0,1,2.4,11.44v25.28H104.37V149.4q0-6.17-3-9.32t-8.64-3.16A13,13,0,0,0,86,138.64a11.49,11.49,0,0,0-4.48,4.76A15.77,15.77,0,0,0,80,150.68l-4.4-2.32a29.11,29.11,0,0,1,3.84-12.16,21.24,21.24,0,0,1,7.68-7.6A20.32,20.32,0,0,1,97.33,126Z"/><path class="cls-1" d="M127.17,111.08h13.36v61.6H127.17Z"/><path class="cls-1" d="M157.24,122a9,9,0,0,1-5.88-1.88,6.15,6.15,0,0,1-2.28-5,6.24,6.24,0,0,1,2.28-5.08,10.2,10.2,0,0,1,11.8,0,6.27,6.27,0,0,1,2.24,5.08,6.18,6.18,0,0,1-2.24,5A8.9,8.9,0,0,1,157.24,122Zm-6.64,4.72,6.64,1.28,6.72-1.28v46H150.6Z"/><path class="cls-1" d="M171.88,127.16h13.37l2.88,17.36v28.16H174.76V142.52Zm33.61-1.2a22,22,0,0,1,11,2.6,17.2,17.2,0,0,1,7,7.4,25.44,25.44,0,0,1,2.39,11.44v25.28H212.52V149.4q0-6.17-3-9.32t-8.64-3.16a13,13,0,0,0-6.75,1.72,11.51,11.51,0,0,0-4.49,4.76,15.77,15.77,0,0,0-1.55,7.28l-4.41-2.32a29.4,29.4,0,0,1,3.84-12.16,21.35,21.35,0,0,1,7.69-7.6A20.32,20.32,0,0,1,205.49,126Z"/><path class="cls-1" d="M261,173.88a33.47,33.47,0,0,1-14.44-3,24.1,24.1,0,0,1-10-8.44,23.94,23.94,0,0,1-.16-25.12A23.6,23.6,0,0,1,246,129a30.9,30.9,0,0,1,13.84-3,25.52,25.52,0,0,1,13.6,3.48,23,23,0,0,1,8.76,9.8,33.51,33.51,0,0,1,3.08,14.88h-41.6v-8.88H278l-5.2,3.2a15.66,15.66,0,0,0-2-6.8,11.24,11.24,0,0,0-4.44-4.32,13.55,13.55,0,0,0-6.56-1.52,14.58,14.58,0,0,0-7.08,1.64,11.57,11.57,0,0,0-4.64,4.56,13.79,13.79,0,0,0-1.64,6.84,15.1,15.1,0,0,0,2.08,8.08,13.17,13.17,0,0,0,6.08,5.12,24.05,24.05,0,0,0,9.68,1.76,37.36,37.36,0,0,0,10.32-1.48,34.08,34.08,0,0,0,9.36-4.2v9a35.35,35.35,0,0,1-10.44,5A43.32,43.32,0,0,1,261,173.88Z"/></svg>